# Blender 4.5.2 LTS
# www.blender.org
mtllib Mesh152.mtl
o Mesh152
v -1.881302 2.193980 2.325585
v -1.881302 2.193980 3.430796
v -1.881303 1.499191 3.430796
v -1.881303 1.499191 2.325585
v -1.881302 2.094725 2.483472
v -1.881302 1.995469 2.641359
v -1.881302 1.896214 2.799246
v -1.881302 1.796958 2.957134
v -1.881303 1.697702 3.115021
v -1.881303 1.598447 3.272908
v -1.881302 2.193980 2.483472
v -1.881302 2.193980 2.641359
v -1.881302 2.193980 2.799246
v -1.881302 2.193980 2.957134
v -1.881302 2.193980 3.115021
v -1.881302 2.193980 3.272908
v -1.881302 2.094725 3.430796
v -1.881302 1.995469 3.430796
v -1.881302 1.896214 3.430796
v -1.881302 1.796958 3.430796
v -1.881303 1.697702 3.430796
v -1.881303 1.598447 3.430796
v -1.881302 2.094725 2.325585
v -1.881302 1.995469 2.325585
v -1.881302 1.896213 2.325585
v -1.881302 1.796958 2.325585
v -1.881303 1.697702 2.325585
v -1.881303 1.598447 2.325585
v -1.881303 1.499191 3.272909
v -1.881303 1.499191 3.115021
v -1.881303 1.499191 2.957134
v -1.881303 1.499191 2.799247
v -1.881303 1.499191 2.641360
v -1.881303 1.499191 2.483472
v -1.881303 1.598447 2.483472
v -1.881303 1.697702 2.483472
v -1.881303 1.598447 2.641359
v -1.881302 1.796958 2.483472
v -1.881303 1.697702 2.641359
v -1.881303 1.598447 2.799247
v -1.881302 1.896214 2.483472
v -1.881302 1.796958 2.641359
v -1.881303 1.697702 2.799247
v -1.881303 1.598447 2.957134
v -1.881302 1.995469 2.483472
v -1.881302 1.896214 2.641359
v -1.881302 1.796958 2.799247
v -1.881303 1.697702 2.957134
v -1.881303 1.598447 3.115021
v -1.881303 1.697702 3.272908
v -1.881302 1.796958 3.115021
v -1.881302 1.796958 3.272908
v -1.881302 1.896214 2.957134
v -1.881302 1.896214 3.115021
v -1.881302 1.896214 3.272908
v -1.881302 1.995469 2.799246
v -1.881302 1.995469 2.957134
v -1.881302 1.995469 3.115021
v -1.881302 1.995469 3.272908
v -1.881302 2.094725 2.641359
v -1.881302 2.094725 2.799246
v -1.881302 2.094725 2.957134
v -1.881302 2.094725 3.115021
v -1.881302 2.094725 3.272908
vn 1.0000 -0.0000 -0.0000
vt 0.000000 0.000000
s 1
f 1/1/1 11/1/1 5/1/1
f 1/1/1 5/1/1 23/1/1
f 28/1/1 34/1/1 4/1/1
f 27/1/1 35/1/1 28/1/1
f 26/1/1 36/1/1 27/1/1
f 25/1/1 38/1/1 26/1/1
f 24/1/1 41/1/1 25/1/1
f 23/1/1 45/1/1 24/1/1
f 28/1/1 35/1/1 34/1/1
f 35/1/1 33/1/1 34/1/1
f 27/1/1 36/1/1 35/1/1
f 36/1/1 37/1/1 35/1/1
f 35/1/1 37/1/1 33/1/1
f 37/1/1 32/1/1 33/1/1
f 26/1/1 38/1/1 36/1/1
f 38/1/1 39/1/1 36/1/1
f 36/1/1 39/1/1 37/1/1
f 39/1/1 40/1/1 37/1/1
f 37/1/1 40/1/1 32/1/1
f 40/1/1 31/1/1 32/1/1
f 25/1/1 41/1/1 38/1/1
f 41/1/1 42/1/1 38/1/1
f 38/1/1 42/1/1 39/1/1
f 42/1/1 43/1/1 39/1/1
f 39/1/1 43/1/1 40/1/1
f 43/1/1 44/1/1 40/1/1
f 40/1/1 44/1/1 31/1/1
f 44/1/1 30/1/1 31/1/1
f 24/1/1 45/1/1 41/1/1
f 45/1/1 46/1/1 41/1/1
f 41/1/1 46/1/1 42/1/1
f 46/1/1 47/1/1 42/1/1
f 42/1/1 47/1/1 43/1/1
f 47/1/1 48/1/1 43/1/1
f 43/1/1 48/1/1 44/1/1
f 48/1/1 49/1/1 44/1/1
f 44/1/1 49/1/1 30/1/1
f 49/1/1 29/1/1 30/1/1
f 23/1/1 5/1/1 45/1/1
f 5/1/1 6/1/1 45/1/1
f 45/1/1 6/1/1 46/1/1
f 6/1/1 7/1/1 46/1/1
f 46/1/1 7/1/1 47/1/1
f 7/1/1 8/1/1 47/1/1
f 47/1/1 8/1/1 48/1/1
f 8/1/1 9/1/1 48/1/1
f 48/1/1 9/1/1 49/1/1
f 9/1/1 10/1/1 49/1/1
f 49/1/1 10/1/1 29/1/1
f 10/1/1 3/1/1 29/1/1
f 10/1/1 22/1/1 3/1/1
f 9/1/1 50/1/1 10/1/1
f 8/1/1 51/1/1 9/1/1
f 7/1/1 53/1/1 8/1/1
f 6/1/1 56/1/1 7/1/1
f 5/1/1 60/1/1 6/1/1
f 10/1/1 50/1/1 22/1/1
f 50/1/1 21/1/1 22/1/1
f 9/1/1 51/1/1 50/1/1
f 51/1/1 52/1/1 50/1/1
f 50/1/1 52/1/1 21/1/1
f 52/1/1 20/1/1 21/1/1
f 8/1/1 53/1/1 51/1/1
f 53/1/1 54/1/1 51/1/1
f 51/1/1 54/1/1 52/1/1
f 54/1/1 55/1/1 52/1/1
f 52/1/1 55/1/1 20/1/1
f 55/1/1 19/1/1 20/1/1
f 7/1/1 56/1/1 53/1/1
f 56/1/1 57/1/1 53/1/1
f 53/1/1 57/1/1 54/1/1
f 57/1/1 58/1/1 54/1/1
f 54/1/1 58/1/1 55/1/1
f 58/1/1 59/1/1 55/1/1
f 55/1/1 59/1/1 19/1/1
f 59/1/1 18/1/1 19/1/1
f 6/1/1 60/1/1 56/1/1
f 60/1/1 61/1/1 56/1/1
f 56/1/1 61/1/1 57/1/1
f 61/1/1 62/1/1 57/1/1
f 57/1/1 62/1/1 58/1/1
f 62/1/1 63/1/1 58/1/1
f 58/1/1 63/1/1 59/1/1
f 63/1/1 64/1/1 59/1/1
f 59/1/1 64/1/1 18/1/1
f 64/1/1 17/1/1 18/1/1
f 5/1/1 11/1/1 60/1/1
f 11/1/1 12/1/1 60/1/1
f 60/1/1 12/1/1 61/1/1
f 12/1/1 13/1/1 61/1/1
f 61/1/1 13/1/1 62/1/1
f 13/1/1 14/1/1 62/1/1
f 62/1/1 14/1/1 63/1/1
f 14/1/1 15/1/1 63/1/1
f 63/1/1 15/1/1 64/1/1
f 15/1/1 16/1/1 64/1/1
f 64/1/1 16/1/1 17/1/1
f 16/1/1 2/1/1 17/1/1
