# Blender 4.5.3 LTS
# www.blender.org
mtllib rect.mtl
o 平面
v -1.000000 -1.000000 -0.000000
v 1.000000 -1.000000 -0.000000
v -1.000000 1.000000 0.000000
v 1.000000 1.000000 0.000000
v -1.000000 0.000000 0.000000
v 0.000000 -1.000000 -0.000000
v 1.000000 0.000000 0.000000
v 0.000000 1.000000 0.000000
v 0.000000 0.000000 0.000000
vn -0.0000 -0.0000 1.0000
vt 1.000000 0.000000
vt 0.500000 0.500000
vt 0.500000 0.000000
vt 1.000000 0.500000
vt 0.500000 1.000000
vt 0.000000 1.000000
vt 1.000000 1.000000
vt 0.000000 0.500000
vt 0.000000 0.000000
s 0
f 2/1/1 9/2/1 6/3/1
f 2/1/1 7/4/1 9/2/1
f 9/2/1 8/5/1 3/6/1
f 9/2/1 7/4/1 8/5/1
f 7/4/1 4/7/1 8/5/1
f 6/3/1 5/8/1 1/9/1
f 6/3/1 9/2/1 5/8/1
f 9/2/1 3/6/1 5/8/1
